<svg xmlns="http://www.w3.org/2000/svg" width="211" height="48" viewBox="0 0 211 48">
  <g id="Group_1542" data-name="Group 1542" transform="translate(-15.647 -21.521)">
    <path id="Path_498" data-name="Path 498" d="M16.491,60.166a19.779,19.779,0,0,0,13.5,5.6c5.675,0,10.277-3.451,10.277-8.894,0-5.138-2.53-8.281-11.275-10.658-7.823-2.147-12.119-6.9-12.119-13.188s5.446-11.5,13.883-11.5a20.568,20.568,0,0,1,11.505,3.835l-.921,3.6a20.273,20.273,0,0,0-10.584-3.68c-5.983,0-9.587,3.22-9.587,7.744,0,3.757,2.148,7.054,9.587,9.048,8.974,2.376,13.806,6.824,13.806,14.261,0,8.743-7.44,13.189-14.573,13.189-6.673,0-11.812-2.684-14.344-5.138Z" fill="#2b849e"/>
    <path id="Path_499" data-name="Path 499" d="M56.951,46.011V68.63H52.732v-46h4.219V45.091" transform="translate(-3.566 -0.106)" fill="#2b849e"/>
    <path id="Path_500" data-name="Path 500" d="M57.4,46.241,72.05,22.625h4.833L57.4,53.7" transform="translate(-4.015 -0.106)" fill="#2b849e"/>
    <path id="Path_501" data-name="Path 501" d="M65.33,43.017,82.589,70.543h-4.6L63.336,46.927" transform="translate(-4.585 -2.073)" fill="#2b849e"/>
    <rect id="Rectangle_419" data-name="Rectangle 419" width="4.219" height="46.005" transform="translate(158.229 22.519)" fill="#67696c"/>
    <path id="Path_502" data-name="Path 502" d="M184,60.166a19.779,19.779,0,0,0,13.5,5.6c5.676,0,10.278-3.451,10.278-8.894,0-5.138-2.531-8.281-11.276-10.658-7.823-2.147-12.119-6.9-12.119-13.188s5.446-11.5,13.883-11.5a20.566,20.566,0,0,1,11.505,3.835l-.921,3.6a20.273,20.273,0,0,0-10.584-3.68c-5.983,0-9.587,3.22-9.587,7.744,0,3.757,2.148,7.054,9.587,9.048,8.974,2.376,13.807,6.824,13.807,14.261,0,8.743-7.441,13.189-14.574,13.189-6.673,0-11.812-2.684-14.345-5.138Z" transform="translate(-16.106)" fill="#67696c"/>
    <path id="Path_503" data-name="Path 503" d="M246.318,22.625v3.757H224.458V42.56h18.025v3.758H224.458V64.873h21.861V68.63h-26.08v-46Z" transform="translate(-19.671 -0.106)" fill="#67696c"/>
    <path id="Path_504" data-name="Path 504" d="M133.483,26.382h14.839c7.592,0,9.97,4.984,9.97,9.738,0,4.831-2.378,9.738-9.97,9.738h-2.692L159.8,68.576h-.033l.033.054h4.986l-12.4-19.476c6.98-1.457,10.124-6.824,10.124-13.035,0-7.208-4.3-13.494-14.189-13.494H131.211l.012.131" transform="translate(-11.111 -0.106)" fill="#67696c"/>
    <path id="Path_505" data-name="Path 505" d="M124.126,22.625,95.463,68.576h-4.6l28.663-45.951" transform="translate(-7.232 -0.106)" fill="#2b849e"/>
    <path id="Path_506" data-name="Path 506" d="M102.068,50.151,84.809,22.625h4.833l14.651,23.616,14.65-23.616h4.6L106.286,50.151" transform="translate(-6.65 -0.106)" fill="#2b849e"/>
    <path id="Path_507" data-name="Path 507" d="M128.695,66.985l3.3,5.288h4.113l-7.411-11.882-7.412,11.882H125.4Z" transform="translate(-10.157 -3.749)" fill="#2b849e"/>
    <path id="Path_508" data-name="Path 508" d="M129.483,66.985l3.3,5.288h4.113l-7.411-11.882" transform="translate(-10.945 -3.749)" fill="#67696c"/>
  </g>
</svg>
